# AST/ASF file generated using VICON BodyLanguage
# -----------------------------------------------
:version 1.10
:name VICON
:units
  mass 1.0
  length 0.45
  angle deg
:documentation
   .ast/.asf automatically generated from VICON data using
   VICON BodyBuilder and BodyLanguage model FoxedUp or BRILLIANT.MOD
:root
   order TX TY TZ RX RY RZ
   axis XYZ
   position 0 0 0  
   orientation 0 0 0 
:bonedata
  begin
     id 1 
     name lhipjoint
     direction 0.78388 -0.462562 0.414208 
     length 3.01181 
     axis 0 0 0  XYZ
  end
  begin
     id 2 
     name lfemur
     direction 0.34202 -0.939693 0  
     length 6.04673  
     axis 0 0 20  XYZ
    dof rx ry rz
    limits (-160.0 20.0)
           (-70.0 70.0)
           (-60.0 70.0)
  end
  begin
     id 3 
     name ltibia
     direction 0.34202 -0.939693 0   
     length 7.211   
     axis 0 0 20   XYZ
    dof rx
    limits (-10.0 170.0)
  end
  begin
     id 4 
     name lfoot
     direction 0.121887 -0.334882 0.934344   
     length 2.13567   
     axis -90 7.62852e-016 20   XYZ
    dof rx rz
    limits (-45.0 90.0)
           (-70.0 20.0)
  end
  begin
     id 5 
     name ltoes
     direction 1.53555e-011 -4.2179e-011 1   
     length 1.05957   
     axis -90 7.62852e-016 20   XYZ
    dof rx
    limits (-90.0 20.0)
  end
  begin
     id 6 
     name rhipjoint
     direction -0.769387 -0.475875 0.426129   
     length 2.92756  
     axis 0 0 0  XYZ 
  end
  begin
     id 7 
     name rfemur
     direction -0.34202 -0.939693 0   
     length 6.35468   
     axis 0 0 -20   XYZ
    dof rx ry rz
    limits (-160.0 20.0)
           (-70.0 70.0)
           (-70.0 60.0)
  end
  begin
     id 8 
     name rtibia
     direction -0.34202 -0.939693 0   
     length 7.37886   
     axis 0 0 -20   XYZ
    dof rx
    limits (-10.0 170.0)
 end
 begin
     id 9 
     name rfoot
     direction -0.101763 -0.279592 0.954711   
     length 2.21478  
     axis -90 -7.62852e-016 -20   XYZ
    dof rx rz
    limits (-45.0 90.0)
           (-20.0 70.0)
  end
  begin
     id 10 
     name rtoes
     direction -1.53494e-011 -4.21851e-011 1   
     length 1.10506   
     axis -90 -7.62852e-016 -20   XYZ
    dof rx
    limits (-90.0 20.0)
  end
  begin
     id 11 
     name lowerback
     direction 0.00747405 0.999267 0.0375481   
     length 2.13259   
     axis 0 0 0   XYZ
    dof rx ry rz
    limits (-20.0 45.0)
           (-30.0 30.0)
           (-30.0 30.0)
  end
  begin
     id 12 
     name upperback
     direction 0.00661626 0.996177 0.0871029   
     length 2.10528   
     axis 0 0 0   XYZ
    dof rx ry rz
    limits (-20.0 45.0)
           (-30.0 30.0)
           (-30.0 30.0)
  end
  begin
     id 13 
     name thorax
     direction 0.00320659 0.997679 0.0680167   
     length 2.11338   
     axis 0 0 0   XYZ
    dof rx ry rz
    limits (-20.0 45.0)
           (-30.0 30.0)
           (-30.0 30.0)
  end
  begin
     id 14 
     name lowerneck
     direction 0.0374841 0.973033 0.227602   
     length 1.42765   
     axis 0 0 0   XYZ
    dof rx ry rz
    limits (-20.0 45.0)
           (-30.0 30.0)
           (-30.0 30.0)
  end
  begin
     id 15 
     name upperneck
     direction 0.00481585 0.989155 -0.146795   
     length 1.47593   
     axis 0 0 0   XYZ
    dof rx ry rz
    limits (-20.0 45.0)
           (-30.0 30.0)
           (-30.0 30.0)
  end
  begin
     id 16
     name head
     direction -0.00292522 0.997206 -0.0746423  
     length 1.48116  
     axis 0 0 0   XYZ
    dof rx ry rz
    limits (-20.0 45.0)
           (-30.0 30.0)
           (-30.0 30.0)
  end
  begin
     id 17 
     name lclavicle
     direction 0.951444 0.305606 0.0368784  
     length 3.01855  
     axis 0 0 0   XYZ
    dof ry rz
    limits (-20.0 10.0)
           (0.0 20.0)
  end
  begin
     id 18 
     name lhumerus
     direction 1 -4.48977e-011 2.61664e-027   
     length 5.52731   
     axis 180 -30 -90   XYZ
    dof rx ry rz
    limits (-60.0 90.0)
           (-90.0 90.0)
           (-90.0 90.0)
  end
  begin
     id 19
     name lradius
     direction 1 -4.48944e-011 8.22157e-027   
     length 3.11059   
     axis 180 -30 -90   XYZ
    dof rx
    limits (-10.0 170.0)
  end
  begin
     id 20
     name lwrist
     direction 1 -4.48976e-011 1.5779e-026   
     length 1.5553   
     axis -1.15221e-014 90 90   XYZ
    dof ry
    limits (-180.0 0.0)
 end
  begin
     id 21 
     name lhand
     direction 1 -4.49025e-011 3.1558e-026   
     length 0.419626   
     axis -2.01367e-014 90 90   XYZ
    dof rx rz
    limits (-90.0 90.0)
           (-45.0 45.0)
  end
  begin
     id 22 
     name lfingers
     direction 1 -4.4904e-011 6.31161e-026   
     length 0.338313   
     axis -4.02734e-014 90 90   XYZ
    dof rx
    limits (0.0 90.0)
  end
  begin
     id 23
     name lthumb
     direction 0.707107 -6.35004e-011 0.707107   
     length 0.485752   
     axis -90 45 2.85299e-015   XYZ
    dof rx rz
    limits (-45.0 45.0)
           (-45.0 45.0)
  end
  begin
     id 24 
     name rclavicle
     direction -0.968876 0.223791 0.105816   
     length 3.04177  
     axis 0 0 0   XYZ 
    dof ry rz
    limits (-10.0 20.0)
           (-20.0 0.0)
  end
  begin
     id 25 
     name rhumerus
     direction -1 -4.48962e-011 -1.01384e-027  
     length 5.25396   
     axis 180 30 90   XYZ
    dof rx ry rz
    limits (-90.0 60.0)
           (-90.0 90.0)
           (-90.0 90.0)
  end
  begin
     id 26 
     name rradius
     direction -1 -4.48955e-011 8.88542e-027   
     length 3.10567   
     axis 180 30 90   XYZ
    dof rx
    limits (-10.0 170.0)
  end
  begin
     id 27 
     name rwrist
     direction -1 -4.48994e-011 1.5779e-026   
     length 1.55283   
     axis -1.15221e-014 -90 -90   XYZ
    dof ry
    limits (-180.0 0.0)
  end
  begin
     id 28
     name rhand
     direction -1 -4.48891e-011 3.1558e-026   
     length 0.498676   
     axis -2.01367e-014 -90 -90   XYZ
    dof rx rz
    limits (-90.0 90.0)
           (-45.0 45.0)
  end
  begin
     id 29
     name rfingers
     direction -1 -4.48972e-011 6.31161e-026   
     length 0.402045   
     axis -4.02734e-014 -90 -90   XYZ
    dof rx
    limits (0.0 90.0)
  end
  begin
     id 30
     name rthumb
     direction -0.707107 -6.34849e-011 0.707107   
     length 0.577259   
     axis -90 -45 -2.85299e-015   XYZ
    dof rx rz
    limits (-45.0 45.0)
           (-45.0 45.0)
  end
:hierarchy
  begin
    root lhipjoint rhipjoint lowerback
    lhipjoint lfemur
    lfemur ltibia
    ltibia lfoot
    lfoot ltoes
    rhipjoint rfemur
    rfemur rtibia
    rtibia rfoot
    rfoot rtoes
    lowerback upperback
    upperback thorax
    thorax lowerneck lclavicle rclavicle
    lowerneck upperneck
    upperneck head
    lclavicle lhumerus
    lhumerus lradius
    lradius lwrist
    lwrist lhand lthumb
    lhand lfingers
    rclavicle rhumerus
    rhumerus rradius
    rradius rwrist
    rwrist rhand rthumb
    rhand rfingers
  end

#!OML:ASF H:\Pregnant\Project 1\Capture day 1\Session 1\femalepreg.ASF
:FULLY-SPECIFIED
:DEGREES
177
root 20.2697 15.4818 21.0449 206.435 8.84852 -182.034
lowerback -11.8172 0.698132 11.1802
upperback -4.90773 0.574041 5.11425
thorax 1.39681 0.632012 -0.816173
lowerneck -4.93695 9.80771 14.3439
upperneck 16.2918 16.2359 -17.5582
head 8.4824 7.83589 -6.51943
rclavicle 1.98785e-015 6.36111e-015
rhumerus -28.3912 3.65881 -78.9777
rradius 32.3058
rwrist -12.2899
rhand -24.1735 -22.7518
rfingers 7.12502
rthumb 2.30982 -52.7191
lclavicle 1.98785e-015 6.36111e-015
lhumerus -46.8056 -18.0174 89.3607
lradius 56.1478
lwrist 29.4764
lhand -17.2924 -9.44057
lfingers 7.12502
lthumb 8.9532 20.3495
rfemur -33.809 16.7999 14.4892
rtibia 33.8714
rfoot -22.4891 -18.3461
rtoes -12.835
lfemur -55.4257 -7.08767 -18.864
ltibia 41.6344
lfoot -10.5951 6.39001
ltoes -18.5943
178
root 20.2616 15.4841 20.9558 206.719 9.0873 -181.935
lowerback -12.0199 0.751674 10.9844
upperback -5.02494 0.646 4.95045
thorax 1.39345 0.663155 -0.86999
lowerneck -5.22655 9.80949 14.1489
upperneck 16.1886 16.1561 -17.4323
head 8.45947 7.7732 -6.43914
rclavicle -2.38542e-014 -6.36111e-015
rhumerus -28.9929 3.31119 -79.0992
rradius 32.2833
rwrist -12.5235
rhand -23.9863 -22.495
rfingers 7.12502
rthumb 2.4906 -52.4602
lclavicle -2.38542e-014 -6.36111e-015
lhumerus -47.0587 -17.8227 89.0394
lradius 55.4067
lwrist 29.7863
lhand -17.5153 -9.26235
lfingers 7.12502
lthumb 8.73812 20.5368
rfemur -33.5509 16.929 14.4223
rtibia 33.3753
rfoot -22.4891 -18.3046
rtoes -13.135
lfemur -55.5591 -7.26072 -18.2813
ltibia 40.5465
lfoot -10.4941 6.45291
ltoes -18.7767
179
root 20.2536 15.4857 20.8648 207.016 9.31684 -181.838
lowerback -12.2207 0.797634 10.7655
upperback -5.18497 0.721319 4.77707
thorax 1.34348 0.695474 -0.920998
lowerneck -5.46151 9.80215 13.9499
upperneck 16.0969 16.0733 -17.2846
head 8.42742 7.71454 -6.35438
rclavicle -9.14409e-015 -6.67916e-014
rhumerus -29.688 3.01565 -79.233
rradius 32.2418
rwrist -12.7121
rhand -23.7871 -22.244
rfingers 7.12502
rthumb 2.68299 -52.2068
lclavicle -9.14409e-015 -6.67916e-014
lhumerus -47.3362 -17.6094 88.7314
lradius 54.5781
lwrist 30.1834
lhand -17.885 -9.15663
lfingers 7.12502
lthumb 8.38133 20.6571
rfemur -33.2992 17.035 14.3556
rtibia 32.8812
rfoot -22.4863 -18.2553
rtoes -13.4587
lfemur -55.7009 -7.42357 -17.7065
ltibia 39.5248
lfoot -10.3897 6.49788
ltoes -18.964
180
root 20.246 15.4863 20.7721 207.316 9.53184 -181.743
lowerback -12.4506 0.842272 10.5342
upperback -5.34625 0.793162 4.58471
thorax 1.30782 0.726829 -0.984568
lowerneck -5.70389 9.79872 13.7449
upperneck 16.0006 15.988 -17.1095
head 8.39216 7.65516 -6.2594
rclavicle 1.35174e-014 2.06736e-014
rhumerus -30.4112 2.76 -79.395
rradius 32.1928
rwrist -12.8788
rhand -23.6084 -22.046
rfingers 7.12502
rthumb 2.85552 -52.0067
lclavicle 1.35174e-014 2.06736e-014
lhumerus -47.5593 -17.3963 88.4024
lradius 53.6533
lwrist 30.671
lhand -18.3554 -9.13003
lfingers 7.12502
lthumb 7.92732 20.7013
rfemur -33.0443 17.1292 14.2939
rtibia 32.3912
rfoot -22.4791 -18.212
rtoes -13.7986
lfemur -55.8425 -7.57315 -17.1446
ltibia 38.5828
lfoot -10.2878 6.55095
ltoes -19.0936
181
root 20.2389 15.4857 20.6772 207.602 9.72371 -181.652
lowerback -12.6832 0.875243 10.2849
upperback -5.51683 0.854196 4.379
thorax 1.26271 0.752939 -1.05338
lowerneck -5.93625 9.79981 13.5494
upperneck 15.9021 15.9068 -16.921
head 8.35501 7.59968 -6.16156
rclavicle 0 2.38542e-014
rhumerus -31.1813 2.55777 -79.5858
rradius 32.1402
rwrist -13.0283
rhand -23.4607 -21.8795
rfingers 7.12502
rthumb 2.99819 -51.8382
lclavicle 0 2.38542e-014
lhumerus -47.7465 -17.1679 88.0568
lradius 52.635
lwrist 31.2298
lhand -18.8901 -9.12741
lfingers 7.12502
lthumb 7.41123 20.7228
rfemur -32.7634 17.2192 14.2417
rtibia 31.9085
rfoot -22.4759 -18.1914
rtoes -14.1457
lfemur -55.963 -7.71656 -16.6042
ltibia 37.7308
lfoot -10.1874 6.64381
ltoes -19.1657
